<?xml version="1.0" encoding="UTF-8"?>
<svg width="65px" height="65px" viewBox="0 0 65 65" xmlns="http://www.w3.org/2000/svg" xmlns:xlink="http://www.w3.org/1999/xlink" version="1.1">
 <!-- Generated by Pixelmator Pro 1.5.5 -->
 <g id="OBJECTS">
  <g id="-Copy">
   <path id="Path" d="M48.428 64.26 L16.604 64.26 C7.756 64.26 0.516 57.02 0.516 48.172 L0.516 16.348 C0.516 7.5 7.756 0.26 16.604 0.26 L48.428 0.26 C57.276 0.26 64.516 7.5 64.516 16.348 L64.516 48.172 C64.516 57.02 57.276 64.26 48.428 64.26 Z" fill="#00aff0" fill-opacity="1" stroke="none"/>
   <path id="Path-1" d="M38.787 17.703 L42.125 22.383 59 17.703 M21.236 54.142 L30.37 45.213 24.873 39.313 M37.396 17.703 L32.515 22.105 40.725 22.411 M18.419 17.703 L20.18 21.296 29.843 21.898 M23.592 36.336 L30.731 23.02 10 21.899 M24.423 37.18 L31.166 44.423 38.604 37.132 40.912 23.552 31.847 23.09" fill="#ffffff" fill-opacity="1" stroke="none"/>
  </g>
 </g>
</svg>
