<?xml version="1.0" encoding="UTF-8"?>
<svg width="65px" height="65px" viewBox="0 0 65 65" xmlns="http://www.w3.org/2000/svg" xmlns:xlink="http://www.w3.org/1999/xlink" version="1.1">
 <!-- Generated by Pixelmator Pro 1.5.5 -->
 <g id="OBJECTS">
  <g id="group">
   <path id="Path" d="M48.396 64.8 L16.572 64.8 C7.724 64.8 0.484 57.56 0.484 48.712 L0.484 16.888 C0.484 8.04 7.724 0.8 16.572 0.8 L48.396 0.8 C57.244 0.8 64.484 8.04 64.484 16.888 L64.484 48.712 C64.484 57.56 57.245 64.8 48.396 64.8 Z" fill="#0077b5" fill-opacity="1" stroke="none"/>
   <g id="group-1">
    <path id="Path-1" d="M50.563 37.091 L50.563 50.633 42.712 50.633 42.712 38 C42.712 34.827 41.578 32.661 38.736 32.661 36.567 32.661 35.278 34.12 34.709 35.532 34.502 36.037 34.449 36.738 34.449 37.446 L34.449 50.634 26.597 50.634 C26.597 50.634 26.702 29.236 26.597 27.02 L34.449 27.02 34.449 30.366 C34.433 30.393 34.411 30.418 34.397 30.444 L34.449 30.444 34.449 30.366 C35.492 28.761 37.353 26.465 41.525 26.465 46.69 26.465 50.563 29.84 50.563 37.091 Z M14.406 50.634 L22.255 50.634 22.255 27.02 14.406 27.02 Z M22.489 19.008 C22.489 21.24 20.679 23.05 18.447 23.05 16.215 23.05 14.405 21.241 14.405 19.008 14.405 16.776 16.215 14.966 18.447 14.966 20.68 14.966 22.489 16.775 22.489 19.008 Z" fill="#ffffff" fill-opacity="1" stroke="none"/>
   </g>
  </g>
 </g>
</svg>
