<?xml version="1.0" encoding="UTF-8"?>
<!--Generator: Apple Native CoreSVG 232.5-->
<!DOCTYPE svg
PUBLIC "-//W3C//DTD SVG 1.1//EN"
       "http://www.w3.org/Graphics/SVG/1.1/DTD/svg11.dtd">
<svg version="1.1" xmlns="http://www.w3.org/2000/svg" xmlns:xlink="http://www.w3.org/1999/xlink" width="128.806" height="128.912">
 <g>
  <rect height="128.912" opacity="0" width="128.806" x="0" y="0"/>
  <path d="M128.806 64.498C128.806 99.7783 99.663 128.912 64.3828 128.912C29.1426 128.912 0 99.7783 0 64.498C0 29.249 29.0937 0.115234 64.334 0.115234C99.623 0.115234 128.806 29.249 128.806 64.498ZM72.7998 75.832C80.1953 75.915 90.457 79.4541 90.457 84.335C90.457 90.0098 79.5615 94.0772 64.4355 94.0772C49.2519 94.0772 38.3964 90.0098 38.3964 84.335C38.3964 79.4541 48.6982 75.915 56.0537 75.832L56.0537 69.876C45.5908 70.0381 31.0459 75.6738 31.0459 84.9082C31.0459 93.2734 43.9267 100.291 64.4355 100.291C84.9843 100.291 97.8476 93.2734 97.8476 84.9082C97.8476 75.6738 83.3027 70.0381 72.7998 69.876ZM51.4092 37.7392C51.4092 43.7626 55.4843 48.8671 61.0019 50.4199L61.0019 73.9863C61.0019 82.5049 62.7265 87.6611 64.4443 87.6611C66.2109 87.6611 67.9179 82.5938 67.9179 73.9863L67.9179 50.4199C73.4355 48.8759 77.4794 43.7626 77.4794 37.7392C77.4794 30.5136 71.7275 24.7041 64.4443 24.7041C57.1611 24.7041 51.4092 30.5136 51.4092 37.7392ZM64.9629 34.0419C64.9629 36.3896 63.0947 38.2665 60.7558 38.2665C58.6172 38.2665 56.6113 36.3896 56.6113 34.0419C56.6113 31.7744 58.5771 29.915 60.7558 29.915C63.0947 29.915 64.9629 31.7744 64.9629 34.0419Z" fill="#000000" fill-opacity="0.85"/>
 </g>
</svg>
