<?xml version="1.0" encoding="UTF-8"?>
<!--Generator: Apple Native CoreSVG 232.5-->
<!DOCTYPE svg
PUBLIC "-//W3C//DTD SVG 1.1//EN"
       "http://www.w3.org/Graphics/SVG/1.1/DTD/svg11.dtd">
<svg version="1.1" xmlns="http://www.w3.org/2000/svg" xmlns:xlink="http://www.w3.org/1999/xlink" width="82.5125" height="135.262">
 <g>
  <rect height="135.262" opacity="0" width="82.5125" x="0" y="0"/>
  <path d="M9.13763 135.129L73.5634 135.129C78.8329 135.129 82.5125 131.396 82.5125 126.048L82.5125 9.07221C82.5125 3.68357 78.8729 0 73.5634 0L9.13763 0C3.67869 0 0 3.68357 0 9.06342L0 126.057C0 131.396 3.75877 135.129 9.13763 135.129ZM13.4814 116.021C11.9062 116.021 10.7343 114.858 10.7343 113.283L10.7343 13.5126C10.7343 11.8573 11.8261 10.7255 13.4814 10.7255L68.9999 10.7255C70.6552 10.7255 71.747 11.8661 71.747 13.5214L71.747 113.274C71.747 114.85 70.6151 116.021 68.9999 116.021Z" fill="#000000" fill-opacity="0.85"/>
 </g>
</svg>
