<?xml version="1.0" encoding="UTF-8"?>
<svg width="65px" height="65px" viewBox="0 0 65 65" xmlns="http://www.w3.org/2000/svg" xmlns:xlink="http://www.w3.org/1999/xlink" version="1.1">
 <!-- Generated by Pixelmator Pro 1.5.5 -->
 <g id="OBJECTS">
  <g id="upwork-Copy">
   <path id="Path" d="M48.396 64.8 L16.572 64.8 C7.724 64.8 0.484 57.56 0.484 48.712 L0.484 16.888 C0.484 8.04 7.724 0.8 16.572 0.8 L48.396 0.8 C57.244 0.8 64.484 8.04 64.484 16.888 L64.484 48.712 C64.484 57.56 57.245 64.8 48.396 64.8 Z" fill="#6fda44" fill-opacity="1" stroke="none"/>
   <path id="Path-1" d="M44.65 38.113 C42.525 38.113 40.525 37.213 38.725 35.75 L39.162 33.675 39.175 33.6 C39.575 31.4 40.813 27.7 44.65 27.7 47.525 27.7 49.862 30.038 49.862 32.913 49.862 35.788 47.525 38.113 44.65 38.113 Z M44.65 22.425 C39.75 22.425 35.962 25.6 34.412 30.838 32.063 27.3 30.275 23.063 29.237 19.488 L23.962 19.488 23.962 33.2 C23.962 35.913 21.762 38.113 19.05 38.113 16.337 38.113 14.137 35.913 14.137 33.2 L14.137 19.475 8.875 19.475 8.875 33.188 C8.875 38.8 13.438 43.413 19.05 43.413 24.662 43.413 29.225 38.8 29.225 33.188 L29.225 30.888 C30.25 33.025 31.5 35.188 33.025 37.088 L29.8 52.263 35.188 52.263 37.525 41.263 C39.575 42.575 41.925 43.4 44.625 43.4 50.4 43.4 55.1 38.675 55.1 32.888 55.112 27.125 50.425 22.425 44.65 22.425" fill="#ffffff" fill-opacity="1" stroke="none"/>
  </g>
 </g>
</svg>
