<?xml version="1.0" encoding="UTF-8"?>
<!--Generator: Apple Native CoreSVG 232.5-->
<!DOCTYPE svg
PUBLIC "-//W3C//DTD SVG 1.1//EN"
       "http://www.w3.org/Graphics/SVG/1.1/DTD/svg11.dtd">
<svg version="1.1" xmlns="http://www.w3.org/2000/svg" xmlns:xlink="http://www.w3.org/1999/xlink" width="128.806" height="128.877">
 <g>
  <rect height="128.877" opacity="0" width="128.806" x="0" y="0"/>
  <path d="M64.3828 124.541C81.7314 124.541 96.1748 99.1904 96.1748 64.5605C96.1748 29.7841 81.7802 4.38471 64.3828 4.38471C47.0254 4.38471 32.582 29.7841 32.582 64.5605C32.582 99.1904 47.0742 124.541 64.3828 124.541ZM64.3828 11.662C76.8984 11.662 88.1738 36.0351 88.1738 64.5605C88.1738 92.4102 76.8984 117.264 64.3828 117.264C51.9072 117.264 40.5918 92.4365 40.5918 64.5605C40.5918 36.0351 51.9072 11.662 64.3828 11.662ZM60.4756 5.28608L60.4756 123.298L68.33 123.298L68.33 5.28608ZM64.3828 87.5645C44.9121 87.5645 27.7012 92.6026 18.9687 100.45L24.9472 105.382C33.2588 99.0459 47.1543 95.4189 64.3828 95.4189C81.6513 95.4189 95.538 99.0459 103.858 105.382L109.828 100.45C101.104 92.6026 83.8847 87.5645 64.3828 87.5645ZM122.443 60.4668L6.36226 60.4668L6.36226 68.3212L122.443 68.3212ZM64.3828 41.5565C83.8847 41.5565 101.104 36.5185 109.828 28.6708L103.858 23.7392C95.538 30.0751 81.6513 33.7021 64.3828 33.7021C47.163 33.7021 33.2851 30.0751 24.9472 23.7392L18.9687 28.6708C27.7012 36.5185 44.9121 41.5565 64.3828 41.5565ZM64.3828 128.806C99.663 128.806 128.806 99.663 128.806 64.4228C128.806 29.1426 99.623 0 64.334 0C29.0937 0 0 29.1426 0 64.4228C0 99.663 29.1426 128.806 64.3828 128.806ZM64.3828 119.907C34.0214 119.907 8.89838 94.7842 8.89838 64.4228C8.89838 34.0214 33.9726 8.89838 64.334 8.89838C94.7441 8.89838 119.907 34.0214 119.907 64.4228C119.907 94.7842 94.7842 119.907 64.3828 119.907Z" fill="#000000" fill-opacity="0.85"/>
 </g>
</svg>
